<?xml version="1.0" encoding="utf-8"?>
<!-- Generator: Adobe Illustrator 18.0.0, SVG Export Plug-In . SVG Version: 6.00 Build 0)  -->
<!DOCTYPE svg PUBLIC "-//W3C//DTD SVG 1.1//EN" "http://www.w3.org/Graphics/SVG/1.1/DTD/svg11.dtd">
<svg version="1.1" id="MS-symbol" xmlns="http://www.w3.org/2000/svg" xmlns:xlink="http://www.w3.org/1999/xlink" x="0px" y="0px"
	 viewBox="12.5 506.8 358.6 76.5" enable-background="new 12.5 506.8 358.6 76.5" xml:space="preserve">
<g>
	<path fill="#FFFFFF" d="M161.5,522.1v45.9h-8v-36h-0.1l-14.2,36h-5.3l-14.6-36h-0.1v36h-7.3v-45.9h11.5l13.2,34h0.2l13.9-34H161.5z
		 M168.2,525.6c0-1.3,0.4-2.3,1.4-3.2c1-0.8,2-1.3,3.3-1.3c1.4,0,2.5,0.4,3.4,1.4c0.8,0.8,1.4,1.9,1.4,3.2c0,1.3-0.4,2.3-1.4,3.2
		c-1,0.8-2,1.3-3.4,1.3s-2.4-0.4-3.3-1.3C168.6,527.8,168.2,526.7,168.2,525.6L168.2,525.6z M176.8,535v32.9h-7.8V535H176.8z
		 M200.3,562.3c1.2,0,2.4-0.3,3.8-0.8c1.4-0.5,2.7-1.3,3.8-2.1v7.2c-1.3,0.7-2.7,1.3-4.2,1.6c-1.6,0.3-3.3,0.5-5.2,0.5
		c-4.9,0-8.8-1.5-11.8-4.6c-3.1-3.1-4.6-7-4.6-11.7c0-5.3,1.6-9.7,4.7-13.1s7.4-5.1,13.2-5.1c1.5,0,2.9,0.2,4.4,0.5
		c1.5,0.4,2.7,0.8,3.5,1.3v7.4c-1.2-0.8-2.4-1.6-3.6-2c-1.3-0.5-2.5-0.7-3.8-0.7c-3.1,0-5.5,1-7.4,3s-2.9,4.7-2.9,8.1
		c0,3.3,0.8,5.9,2.7,7.8C194.8,561.4,197.2,562.3,200.3,562.3L200.3,562.3z M229.9,534.5c0.6,0,1.2,0,1.7,0.1c0.5,0.1,1,0.2,1.3,0.3
		v7.9c-0.4-0.3-1-0.5-1.8-0.8c-0.7-0.3-1.7-0.4-2.9-0.4c-1.9,0-3.5,0.8-4.8,2.4c-1.3,1.6-2,4-2,7.4v16.6h-7.8V535h7.8v5.2h0.1
		c0.7-1.8,1.8-3.2,3.2-4.2C226.2,535,227.9,534.5,229.9,534.5L229.9,534.5z M233.3,552c0-5.4,1.5-9.8,4.6-13s7.3-4.8,12.9-4.8
		c5.1,0,9.1,1.5,12,4.6s4.4,7.2,4.4,12.4c0,5.3-1.5,9.6-4.6,12.7c-3.1,3.2-7.2,4.8-12.5,4.8c-5.1,0-9.1-1.5-12.1-4.5
		C234.8,561.3,233.3,557.1,233.3,552L233.3,552z M241.4,551.7c0,3.4,0.7,6.1,2.3,7.9c1.6,1.8,3.8,2.8,6.7,2.8c2.9,0,5-1,6.5-2.8
		c1.5-1.8,2.2-4.5,2.2-8.1c0-3.5-0.7-6.2-2.3-8c-1.5-1.8-3.6-2.7-6.4-2.7c-2.9,0-5,1-6.6,2.9C242.1,545.5,241.4,548.2,241.4,551.7
		L241.4,551.7z M278.6,543.7c0,1.1,0.3,2,1.1,2.7c0.7,0.6,2.2,1.4,4.7,2.3c3.1,1.3,5.3,2.7,6.5,4.1c1.3,1.6,1.9,3.4,1.9,5.6
		c0,3.1-1.2,5.6-3.6,7.4c-2.3,1.9-5.6,2.9-9.7,2.9c-1.4,0-2.9-0.2-4.6-0.5s-3.1-0.7-4.2-1.3v-7.6c1.4,1,3,1.8,4.6,2.3
		c1.6,0.5,3.1,0.8,4.5,0.8c1.7,0,3.1-0.2,3.8-0.7c0.8-0.5,1.3-1.3,1.3-2.4c0-1.1-0.4-2-1.3-2.7c-0.8-0.7-2.5-1.6-4.9-2.5
		c-2.9-1.2-4.9-2.5-6.1-4c-1.2-1.5-1.8-3.4-1.8-5.7c0-3,1.2-5.4,3.5-7.3c2.3-1.9,5.4-2.9,9.1-2.9c1.2,0,2.4,0.1,3.8,0.4
		c1.4,0.2,2.7,0.6,3.6,1v7.3c-1.1-0.6-2.2-1.3-3.6-1.8s-2.8-0.7-4-0.7c-1.5,0-2.7,0.3-3.4,0.8C279,541.9,278.6,542.7,278.6,543.7
		L278.6,543.7z M296,552c0-5.4,1.5-9.8,4.6-13c3.1-3.2,7.3-4.8,12.9-4.8c5.1,0,9.1,1.5,12,4.6c2.9,3.1,4.4,7.2,4.4,12.4
		c0,5.3-1.5,9.6-4.6,12.7c-3.1,3.2-7.2,4.8-12.5,4.8c-5.1,0-9.1-1.5-12.1-4.5C297.6,561.3,296,557.1,296,552L296,552z M304.1,551.7
		c0,3.4,0.7,6.1,2.3,7.9s3.8,2.8,6.7,2.8c2.9,0,5-1,6.5-2.8c1.5-1.8,2.2-4.5,2.2-8.1c0-3.5-0.7-6.2-2.3-8c-1.5-1.8-3.6-2.7-6.4-2.7
		c-2.9,0-5,1-6.6,2.9C304.9,545.5,304.1,548.2,304.1,551.7z M355.5,541.4h-11.6v26.6H336v-26.6h-5.5V535h5.5v-4.6
		c0-3.5,1.2-6.3,3.4-8.5s5.1-3.3,8.6-3.3c1,0,1.8,0,2.5,0.1c0.7,0.1,1.4,0.2,1.9,0.4v6.7c-0.2-0.1-0.7-0.3-1.4-0.5
		c-0.6-0.2-1.4-0.3-2.2-0.3c-1.6,0-2.9,0.5-3.7,1.5c-0.8,1.1-1.3,2.5-1.3,4.5v3.9h11.6v-7.4l7.8-2.3v9.8h7.9v6.4h-7.9v15.4
		c0,2,0.3,3.5,1.1,4.2c0.7,0.8,1.9,1.3,3.5,1.3c0.4,0,1-0.1,1.6-0.3c0.6-0.2,1.2-0.4,1.7-0.7v6.4c-0.5,0.3-1.3,0.5-2.4,0.7
		c-1.2,0.2-2.2,0.3-3.4,0.3c-3.3,0-5.7-0.8-7.3-2.7c-1.6-1.7-2.4-4.4-2.4-7.9V541.4L355.5,541.4z"/>
	<path fill="#FFFFFF" d="M12.5,506.8h36.3v36.3H12.5V506.8z"/>
	<path fill="#FFFFFF" d="M52.6,506.8H89v36.3H52.6V506.8z"/>
	<path fill="#FFFFFF" d="M12.5,546.9h36.3v36.3H12.5V546.9z"/>
	<path fill="#FFFFFF" d="M52.6,546.9H89v36.3H52.6V546.9z"/>
</g>
</svg>
